<svg width="100" height="100" viewBox="0 0 100 100" fill="none" xmlns="http://www.w3.org/2000/svg">
<rect width="100" height="100" rx="50" fill="white" fill-opacity="0.3"/>
<path fill-rule="evenodd" clip-rule="evenodd" d="M41.666 49.6911C48.566 42.7701 55.31 36.0141 61.898 29.4291C62.2428 29.0665 62.4351 28.5854 62.4351 28.0851C62.4351 27.5847 62.2428 27.1036 61.898 26.7411C60.965 25.7031 59.489 25.7931 58.817 26.5011C51.989 33.3471 44.846 40.5021 37.388 47.9691C36.797 48.4551 36.5 49.0311 36.5 49.6911C36.5 50.3541 36.797 50.9451 37.388 51.4671L59.837 73.3851C60.2676 73.7812 60.8358 73.9937 61.4207 73.9775C62.0056 73.9612 62.561 73.7175 62.969 73.2981C64.043 72.2211 63.629 71.1591 63.143 70.6551C55.9727 63.6776 48.8157 56.6896 41.666 49.6911Z" fill="black"/>
</svg>
