<svg width="100" height="100" viewBox="0 0 100 100" fill="none" xmlns="http://www.w3.org/2000/svg">
<rect width="100" height="100" rx="50" fill="white" fill-opacity="0.3"/>
<path fill-rule="evenodd" clip-rule="evenodd" d="M41.1587 26.474L62.8877 48.242C63.0833 48.4289 63.2385 48.6539 63.3437 48.9031C63.449 49.1523 63.5021 49.4205 63.4997 49.691C63.5005 50.2493 63.2805 50.7852 62.8877 51.182C55.0277 58.85 47.4527 66.251 40.1627 73.385C39.7877 73.736 38.2877 74.609 37.1297 73.313C35.9717 72.014 36.6737 70.883 37.1297 70.415L58.3337 49.691L38.0927 29.414C37.3547 28.397 37.4147 27.458 38.2727 26.597C39.1307 25.736 40.0937 25.694 41.1587 26.474Z" fill="black"/>
</svg>
